<svg width="75" height="24" viewBox="0 0 75 24" fill="none" xmlns="http://www.w3.org/2000/svg">
<g opacity="0.5">
<path fill-rule="evenodd" clip-rule="evenodd" d="M22.5 12C22.5 11.8011 22.421 11.6103 22.2803 11.4697C22.1397 11.329 21.9489 11.25 21.75 11.25H4.0605L8.781 6.53099C8.85073 6.46125 8.90604 6.37847 8.94378 6.28736C8.98152 6.19625 9.00095 6.0986 9.00095 5.99999C9.00095 5.90137 8.98152 5.80372 8.94378 5.71261C8.90604 5.6215 8.85073 5.53872 8.781 5.46899C8.71127 5.39925 8.62848 5.34394 8.53737 5.3062C8.44626 5.26846 8.34861 5.24904 8.25 5.24904C8.15138 5.24904 8.05373 5.26846 7.96262 5.3062C7.87151 5.34394 7.78873 5.39925 7.719 5.46899L1.719 11.469C1.64915 11.5387 1.59374 11.6214 1.55593 11.7125C1.51812 11.8037 1.49866 11.9013 1.49866 12C1.49866 12.0986 1.51812 12.1963 1.55593 12.2874C1.59374 12.3786 1.64915 12.4613 1.719 12.531L7.719 18.531C7.78873 18.6007 7.87151 18.656 7.96262 18.6938C8.05373 18.7315 8.15138 18.7509 8.25 18.7509C8.34861 18.7509 8.44626 18.7315 8.53737 18.6938C8.62848 18.656 8.71127 18.6007 8.781 18.531C8.85073 18.4613 8.90604 18.3785 8.94378 18.2874C8.98152 18.1963 9.00095 18.0986 9.00095 18C9.00095 17.9014 8.98152 17.8037 8.94378 17.7126C8.90604 17.6215 8.85073 17.5387 8.781 17.469L4.0605 12.75H21.75C21.9489 12.75 22.1397 12.671 22.2803 12.5303C22.421 12.3897 22.5 12.1989 22.5 12Z" fill="#181515"/>
</g>
<path fill-rule="evenodd" clip-rule="evenodd" d="M52.5 12C52.5 11.8011 52.579 11.6103 52.7197 11.4697C52.8603 11.329 53.0511 11.25 53.25 11.25H70.9395L66.219 6.53099C66.1493 6.46125 66.094 6.37847 66.0562 6.28736C66.0185 6.19625 65.9991 6.0986 65.9991 5.99999C65.9991 5.90137 66.0185 5.80372 66.0562 5.71261C66.094 5.6215 66.1493 5.53872 66.219 5.46899C66.2887 5.39925 66.3715 5.34394 66.4626 5.3062C66.5537 5.26846 66.6514 5.24904 66.75 5.24904C66.8486 5.24904 66.9463 5.26846 67.0374 5.3062C67.1285 5.34394 67.2113 5.39925 67.281 5.46899L73.281 11.469C73.3508 11.5387 73.4063 11.6214 73.4441 11.7125C73.4819 11.8037 73.5013 11.9013 73.5013 12C73.5013 12.0986 73.4819 12.1963 73.4441 12.2874C73.4063 12.3786 73.3508 12.4613 73.281 12.531L67.281 18.531C67.2113 18.6007 67.1285 18.656 67.0374 18.6938C66.9463 18.7315 66.8486 18.7509 66.75 18.7509C66.6514 18.7509 66.5537 18.7315 66.4626 18.6938C66.3715 18.656 66.2887 18.6007 66.219 18.531C66.1493 18.4613 66.094 18.3785 66.0562 18.2874C66.0185 18.1963 65.9991 18.0986 65.9991 18C65.9991 17.9014 66.0185 17.8037 66.0562 17.7126C66.094 17.6215 66.1493 17.5387 66.219 17.469L70.9395 12.75H53.25C53.0511 12.75 52.8603 12.671 52.7197 12.5303C52.579 12.3897 52.5 12.1989 52.5 12Z" fill="#181515"/>
</svg>
